<?xml version="1.0" standalone="no"?>
<svg viewBox="0 0 200 200" xmlns="http://www.w3.org/2000/svg">
  <path fill="#8A3FFC" d="M28.3,-47C35.4,-39.5,39,-29.5,48.4,-19.1C57.9,-8.7,73.3,2,69.1,7.8C64.9,13.5,41.1,14.3,28.3,18.9C15.5,23.4,13.7,31.8,10.4,30.4C7.2,29.1,2.6,18,-7.9,18.7C-18.4,19.4,-34.8,31.8,-48.3,32.7C-61.9,33.5,-72.6,22.8,-65.2,14.9C-57.7,7,-32.1,2.1,-22.3,-6.4C-12.6,-14.9,-18.8,-26.9,-17.7,-37.1C-16.7,-47.3,-8.3,-55.7,1.1,-57.5C10.6,-59.3,21.3,-54.5,28.3,-47Z" transform="translate(100 100)" />
</svg>
