<svg id="Layer_1" data-name="Layer 1" xmlns="http://www.w3.org/2000/svg" viewBox="0 0 500 500" width="500" height="500" class="illustration"><defs><style>.cls-1{fill:#ededeb;}.cls-2{fill:#0099f5;}.cls-3{opacity:0.09;isolation:isolate;}.cls-4{fill:#f0457d;}.cls-5{fill:#db2868;}.cls-6{fill:#ffd44d;}.cls-7{fill:#f9bb0d;}.cls-8{fill:#24285b;}.cls-9{fill:#13183f;}</style></defs><title>Strategy</title><path class="cls-1" d="M78,258a6.24,6.24,0,0,1-4.69-10.33L184,121a6.21,6.21,0,0,1,7.91-1.23l112,67.61,114.51-79a6.23,6.23,0,1,1,7.08,10.25L307.68,199.88a6.21,6.21,0,0,1-6.76.21l-111-67L82.73,255.87A6.23,6.23,0,0,1,78,258Z"></path><circle class="cls-2" cx="304.14" cy="194.76" r="37.84"></circle><path class="cls-3" d="M339.07,180.2a37.83,37.83,0,0,1-68.19,16.29,38.24,38.24,0,0,1-4.14-7.45,37.84,37.84,0,1,0,72.33-8.84Z"></path><circle class="cls-4" cx="78.04" cy="251.78" r="37.84"></circle><path class="cls-5" d="M108.34,274.44A37.84,37.84,0,0,1,59.62,224a38.18,38.18,0,0,1,4.3-7.35,37.84,37.84,0,1,0,44.42,57.77Z"></path><circle class="cls-6" cx="188.65" cy="125.06" r="37.84"></circle><path class="cls-7" d="M197.11,88.18a37.83,37.83,0,0,1-34.85,64,37.84,37.84,0,1,0,34.85-64Z"></path><circle class="cls-8" cx="418.79" cy="113.42" r="37.84"></circle><path class="cls-9" d="M449.09,136.08a37.84,37.84,0,0,1-44.41-57.77,37.84,37.84,0,1,0,44.41,57.77Z"></path><rect class="cls-4" x="37.01" y="315.91" width="82.05" height="113.29" rx="3"></rect><path class="cls-3" d="M100.63,315.91h15.43a3,3,0,0,1,3,3V426.2a3,3,0,0,1-3,3H100.63a0,0,0,0,1,0,0V315.91A0,0,0,0,1,100.63,315.91Z"></path><rect class="cls-6" x="151.65" y="213.92" width="82.05" height="215.28" rx="3"></rect><path class="cls-3" d="M215.27,213.92H230.7a3,3,0,0,1,3,3V426.2a3,3,0,0,1-3,3H215.27a0,0,0,0,1,0,0V213.92A0,0,0,0,1,215.27,213.92Z"></path><rect class="cls-2" x="266.3" y="274.26" width="82.05" height="154.94" rx="3"></rect><path class="cls-3" d="M329.91,274.26h15.43a3,3,0,0,1,3,3V426.2a3,3,0,0,1-3,3H329.91a0,0,0,0,1,0,0V274.26A0,0,0,0,1,329.91,274.26Z"></path><rect class="cls-8" x="380.94" y="185.7" width="82.05" height="243.51" rx="3"></rect><path class="cls-3" d="M444.56,185.7H460a3,3,0,0,1,3,3V426.2a3,3,0,0,1-3,3H444.56a0,0,0,0,1,0,0V185.7A0,0,0,0,1,444.56,185.7Z"></path></svg>